<svg width="52" height="78" viewBox="0 0 52 78" fill="none" xmlns="http://www.w3.org/2000/svg">
<path d="M45.2673 23.6454C45.9023 28.4714 44.4933 33.4193 40.9593 38.7724C34.6343 48.3703 32.1233 52.4813 31.2433 57.0364H27.0133V39.9504L32.6123 35.9464C33.0613 35.6254 33.1653 35.0004 32.8443 34.5514C32.5233 34.1024 31.8983 33.9974 31.4493 34.3194L26.0133 38.2074L20.5773 34.3194C20.1263 33.9974 19.5033 34.1024 19.1823 34.5514C18.8613 35.0004 18.9653 35.6254 19.4143 35.9464L25.0133 39.9504V57.0364H20.7553C19.9073 52.5294 17.5083 48.5994 11.0463 38.7824C7.50328 33.4194 6.09428 28.4654 6.73928 23.6364C7.20528 20.1534 8.61128 16.9014 10.8083 14.2284C14.6503 9.51935 20.0443 6.92535 25.9973 6.92535C31.9483 6.92535 37.3423 9.51535 41.1873 14.2184C43.3803 16.8974 44.7913 20.1584 45.2673 23.6454ZM46.4393 42.3954C37.9563 55.2644 37.3993 56.7004 37.3883 62.4454V70.0094C37.3883 70.8764 37.1293 71.7234 36.6443 72.4424C35.8353 73.6404 34.4843 74.3593 33.0393 74.3593H32.0973L31.6403 75.9364C31.3703 76.8704 30.5143 77.5134 29.5423 77.5134H26.0003H22.4583C21.4863 77.5134 20.6303 76.8704 20.3603 75.9364L20.1663 75.2644C20.0113 74.7284 19.5203 74.3593 18.9623 74.3593C17.5163 74.3593 16.1653 73.6404 15.3563 72.4424C14.8713 71.7234 14.6123 70.8773 14.6123 70.0103V62.6244C14.6123 56.7354 14.1333 55.3994 5.56128 42.3964C1.65428 36.4743 -0.717718 29.9284 0.228282 22.7814C0.852282 18.1274 2.74428 13.6974 5.72828 10.0684C10.8713 3.77835 18.1633 0.360352 26.0003 0.360352C33.8373 0.360352 41.1403 3.77735 46.2723 10.0684C49.2553 13.6974 51.1483 18.1284 51.7713 22.7814C52.7183 29.9274 50.3473 36.4734 46.4393 42.3954ZM33.6483 69.5834C33.6483 69.0314 33.2003 68.5834 32.6483 68.5834H32.4253H19.5743H19.3523C18.8003 68.5834 18.3523 69.0314 18.3523 69.5834C18.3523 70.1354 18.8003 70.5834 19.3523 70.5834H19.5743H32.4253H32.6483C33.2003 70.5834 33.6483 70.1354 33.6483 69.5834ZM33.6483 63.8114C33.6483 63.2594 33.2003 62.8114 32.6483 62.8114H32.4253H19.5743H19.3523C18.8003 62.8114 18.3523 63.2594 18.3523 63.8114C18.3523 64.3633 18.8003 64.8114 19.3523 64.8114H19.5743H32.4253H32.6483C33.2003 64.8114 33.6483 64.3633 33.6483 63.8114ZM47.2493 23.3794C46.7233 19.5214 45.1623 15.9154 42.7353 12.9524C38.5043 7.77635 32.5593 4.92635 25.9973 4.92635C19.4313 4.92635 13.4863 7.78035 9.26028 12.9614C6.82828 15.9194 5.27128 19.5194 4.75628 23.3724C4.04528 28.7014 5.55628 34.1024 9.37628 39.8844C16.0583 50.0344 18.2723 53.6934 18.9183 58.1804L19.0423 59.0373H32.9503L33.0763 58.1834C33.7483 53.6444 35.9613 49.9924 42.6293 39.8734C46.4383 34.1014 47.9503 28.7074 47.2493 23.3794Z" fill="#FCF736"/>
</svg>
