<svg width="49" height="49" viewBox="0 0 49 49" fill="none" xmlns="http://www.w3.org/2000/svg">
<path d="M24.8084 13.7705C23.2433 13.7705 21.9756 15.0382 21.9756 16.6033V21.5606C21.9756 23.1257 23.2433 24.3934 24.8084 24.3934C26.3735 24.3934 27.6411 23.1257 27.6411 21.5606V16.6033C27.6411 15.0382 26.3735 13.7705 24.8084 13.7705Z" fill="#FCF736"/>
<path d="M26.3805 29.1159C26.2247 29.0168 26.0619 28.9318 25.8919 28.861C25.7219 28.7901 25.5449 28.7335 25.3607 28.6981C24.9925 28.6202 24.6171 28.6202 24.256 28.6981C24.0718 28.7335 23.8948 28.7901 23.7248 28.861C23.5549 28.9318 23.3849 29.0168 23.2362 29.1159C23.0804 29.2221 22.9316 29.3425 22.8042 29.47C22.6767 29.6046 22.5563 29.7462 22.4501 29.902C22.3509 30.0578 22.2659 30.2207 22.1951 30.3907C22.1243 30.5606 22.0677 30.7377 22.0322 30.9218C21.9968 31.1059 21.9756 31.2901 21.9756 31.4742C21.9756 31.6583 21.9968 31.8424 22.0322 32.0266C22.0677 32.2107 22.1243 32.3878 22.1951 32.5577C22.2659 32.7277 22.3509 32.8906 22.4501 33.0464C22.5563 33.2022 22.6767 33.3438 22.8042 33.4784C22.9387 33.6058 23.0804 33.7262 23.2362 33.8325C23.392 33.9316 23.5549 34.0166 23.7248 34.0874C23.8948 34.1582 24.0718 34.2149 24.256 34.2503C24.4401 34.2857 24.6242 34.307 24.8084 34.307C24.9925 34.307 25.1766 34.2857 25.3607 34.2503C25.5449 34.2149 25.7219 34.1582 25.8919 34.0874C26.0619 34.0166 26.2247 33.9316 26.3805 33.8325C26.5363 33.7262 26.678 33.6058 26.8125 33.4784C26.94 33.3438 27.0604 33.2022 27.1666 33.0464C27.2658 32.8906 27.3508 32.7277 27.4216 32.5577C27.4924 32.3878 27.5491 32.2107 27.5845 32.0266C27.6199 31.8424 27.6411 31.6583 27.6411 31.4742C27.6411 30.7306 27.3366 29.9941 26.8125 29.47C26.678 29.3425 26.5363 29.2221 26.3805 29.1159Z" fill="#FCF736"/>
<path d="M46.028 17.6589C45.1357 16.7666 44.64 15.5768 44.64 14.3091V14.1038C44.64 12.6449 44.3708 11.3135 43.8397 10.1308C42.3171 6.75271 38.9602 4.57148 35.2776 4.57148H34.8952C33.6346 4.57148 32.4449 4.07574 31.5526 3.18342C30.5257 2.15654 29.3855 1.39877 28.1745 0.938447C24.7114 -0.37171 20.7951 0.463957 18.196 3.06302L18.0756 3.18342C17.1833 4.07574 15.9936 4.57148 14.733 4.57148H14.5205C13.0616 4.57148 11.7232 4.84059 10.5476 5.37173C7.16948 6.89435 4.98825 10.2512 4.98825 13.9338V14.3162C4.98825 15.5768 4.49959 16.7666 3.60019 17.6589C2.56623 18.6858 1.81554 19.8259 1.35522 21.037C0.045063 24.5 0.88073 28.4163 3.48688 31.0225L3.60019 31.1358C4.49251 32.0281 4.98825 33.2179 4.98825 34.4855V34.6909C4.98825 36.1498 5.25736 37.4812 5.78851 38.6639C7.31112 42.042 10.668 44.2232 14.3506 44.2232H14.733C15.9936 44.2232 17.1833 44.7189 18.0756 45.6112C19.1025 46.6381 20.2427 47.3959 21.4537 47.8562C22.5443 48.267 23.6775 48.4653 24.8035 48.4653C27.2538 48.4653 29.6546 47.5163 31.4392 45.7316L31.5596 45.6112C32.452 44.7189 33.6417 44.2232 34.9023 44.2232H35.1148C36.5736 44.2232 37.905 43.9541 39.0877 43.4229C42.4658 41.9003 44.647 38.5435 44.647 34.8609V34.4785C44.647 33.2179 45.1357 32.0281 46.0351 31.1358C47.0691 30.1089 47.8197 28.9687 48.2801 27.7577C49.5902 24.2946 48.7546 20.3783 46.1555 17.7793L46.0351 17.6589H46.028ZM42.9686 25.7535C42.7987 26.2068 42.4729 26.6742 42.0196 27.1345C40.0579 29.0962 38.9744 31.7094 38.9744 34.4855V34.868C38.9744 36.3198 38.1033 37.6512 36.7578 38.2602C36.3116 38.4585 35.7592 38.5647 35.1077 38.5647H34.8952C32.1191 38.5647 29.513 39.6483 27.5442 41.61L27.4238 41.7304C26.3969 42.7572 24.8389 43.083 23.4579 42.5589C22.9976 42.3819 22.5373 42.0632 22.0769 41.61C20.1152 39.6483 17.502 38.5647 14.7259 38.5647H14.3435C12.8917 38.5647 11.5603 37.6937 10.9512 36.341C10.7529 35.8948 10.6467 35.3425 10.6467 34.6909V34.4855C10.6467 31.7094 9.56317 29.0962 7.5944 27.1274L7.48109 27.0141C6.45421 25.9872 6.12844 24.4292 6.6525 23.0411C6.82247 22.5879 7.14824 22.1205 7.60148 21.6602C9.56317 19.6985 10.6467 17.0852 10.6467 14.3091V13.9267C10.6467 12.4749 11.5178 11.1435 12.8704 10.5345C13.3166 10.3362 13.869 10.2299 14.5134 10.2299H14.7259C17.502 10.2299 20.1082 9.1464 22.0769 7.18471L22.1973 7.06431C23.2242 6.03744 24.7822 5.71167 26.1632 6.23573C26.6235 6.41278 27.0839 6.73146 27.5442 7.18471C29.5059 9.1464 32.1191 10.2299 34.8952 10.2299H35.2776C36.7294 10.2299 38.0608 11.101 38.6699 12.4537C38.8682 12.8998 38.9744 13.4522 38.9744 14.1038V14.3091C38.9744 17.0852 40.0579 19.6985 42.0196 21.6602L42.14 21.7806C43.1669 22.8074 43.4927 24.3655 42.9686 25.7535Z" fill="#FCF736"/>
</svg>
