<svg width="64" height="64" viewBox="0 0 64 64" fill="none" xmlns="http://www.w3.org/2000/svg">
<path d="M38.7734 60.3415H35.8909L35.0419 61.8475C34.7164 62.4247 34.2433 62.905 33.6711 63.2392C33.0988 63.5734 32.4481 63.7496 31.7854 63.7495H31.7839C31.1213 63.7495 30.4705 63.5733 29.8983 63.2391C29.3261 62.9049 28.853 62.4247 28.5274 61.8475L27.6784 60.3415H24.7959V58.3115H38.7739L38.7734 60.3415Z" fill="#51514C"/>
<path d="M38.7734 56.825H24.7954V54.6855H38.7734V56.825ZM38.7734 50.9695H24.7954V53.109H38.7734V50.9695ZM58.0669 34.6815L51.9624 33.046L52.4224 31.329L58.5269 32.9645L58.0669 34.6815ZM5.9329 34.6815L5.4729 32.9645L11.5774 31.329L12.0374 33.046L5.9329 34.6815ZM52.4224 22.225L51.9624 20.508L58.0669 18.872L58.5269 20.589L52.4224 22.225ZM11.5774 22.225L5.4729 20.589L5.9329 18.872L12.0374 20.508L11.5774 22.225ZM47.4099 12.6235L46.1529 11.3665L50.6219 6.8975L51.8789 8.1545L47.4099 12.6235ZM16.5899 12.6235L12.1214 8.1545L13.3784 6.8975L17.8469 11.3665L16.5899 12.6235ZM38.2689 6.8145L36.5519 6.3545L38.1879 0.25L39.9049 0.71L38.2689 6.8145ZM25.7309 6.8145L24.0954 0.71L25.8124 0.25L27.4484 6.3545L25.7309 6.8145Z" fill="#A7A79B"/>
<path d="M29.901 32.0702H33.6685V49.5372H29.901V32.0702ZM31.7845 9.69321C22.542 9.42821 14.969 17.1017 14.969 26.6052C14.969 31.4957 16.977 35.8957 20.1845 38.9817C23.003 41.6932 24.7955 45.5552 24.7955 49.5372H28.7155V32.0702H25.875C23.655 32.0702 21.8495 30.2642 21.8495 28.0447C21.8495 25.8252 23.6555 24.0192 25.875 24.0192C28.0945 24.0192 29.901 25.8252 29.901 28.0447V30.8852H33.6685V28.0447C33.6685 25.8247 35.4745 24.0192 37.6945 24.0192C39.9145 24.0192 41.72 25.8252 41.72 28.0447C41.72 30.2642 39.914 32.0702 37.6945 32.0702H34.8535V49.5372H38.7735C38.7735 45.5552 40.5655 41.6932 43.3845 38.9817C46.592 35.8957 48.6 31.4957 48.6 26.6052C48.6 17.1012 41.027 9.42771 31.7845 9.69321ZM25.875 25.2037C25.1219 25.2045 24.3999 25.504 23.8673 26.0366C23.3348 26.5691 23.0353 27.2911 23.0345 28.0442C23.0353 28.7973 23.3348 29.5193 23.8673 30.0519C24.3999 30.5844 25.1219 30.8839 25.875 30.8847H28.716V28.0442C28.7151 27.2911 28.4154 26.569 27.8828 26.0365C27.3502 25.504 26.6281 25.2045 25.875 25.2037ZM37.6945 30.8847H34.8535V28.0442C34.8544 27.2911 35.1541 26.569 35.6867 26.0365C36.2193 25.504 36.9413 25.2045 37.6945 25.2037C38.4476 25.2045 39.1696 25.504 39.7022 26.0366C40.2347 26.5691 40.5342 27.2911 40.535 28.0442C40.5342 28.7973 40.2347 29.5193 39.7022 30.0519C39.1696 30.5844 38.4476 30.8839 37.6945 30.8847Z" fill="#FCF532"/>
</svg>
