<svg width="515" height="924" viewBox="0 0 515 924" fill="none" xmlns="http://www.w3.org/2000/svg">
<path fill-rule="evenodd" clip-rule="evenodd" d="M132.501 769.842C104.528 784.705 73.8454 800.078 44.9956 813.9C67.7223 846.239 97.6782 873.166 132.501 892.293V769.842ZM132.501 645.987V731.458C102.288 755.782 68.1332 779.618 36.0914 800.338C18.3186 771.415 6.17503 738.754 1 703.785C40.2078 676.826 84.4128 657.703 132.501 645.987ZM132.501 731.458C175.308 696.935 210.245 661.588 220.058 633C189.719 634.85 160.47 639.192 132.501 645.987V731.458ZM132.501 892.293V769.842C177.326 746.03 215.147 723.523 227.208 710.974L249.338 924C207.104 922.777 167.344 911.431 132.501 892.293ZM381.815 769.842C336.844 746.03 298.912 723.523 286.883 710.974L264.287 924C306.801 922.872 346.787 911.495 381.815 892.226V769.842ZM381.815 731.083C339.427 697.049 304.774 662.128 294.31 633.785C324.732 635.784 353.98 640.095 381.815 646.89V731.083ZM381.815 892.226C416.665 873.06 446.625 846.124 469.316 813.766C440.451 799.995 409.792 784.654 381.815 769.842V892.226ZM478.315 799.995C446.211 779.243 412.079 755.376 381.815 731.083V646.89C429.895 658.527 473.931 677.575 513 704.739C507.766 739.184 495.76 771.435 478.315 799.995Z" fill="white"/>
<path d="M106.751 287.816C116.62 295.691 125.168 304.067 133.664 313C135.615 301.787 141.114 292.502 149.095 282.538L152.818 277.837L153 277.614L152.818 277.363C151.819 276.305 150.808 275.298 149.753 274.26C139.449 264.081 126.742 255.113 108.111 246L106.248 251.947C104.967 255.869 103.865 259.454 103.096 262.882C101.831 268.681 101.451 274.001 103.096 279.659C103.865 282.292 105.07 284.991 106.751 287.816Z" fill="white"/>
<path d="M14.3831 227.634C18.5693 229.46 22.7871 231.452 26.993 233.657C47.5681 244.367 68.1946 259.285 86.6232 273C86.7181 272.393 86.7972 271.675 86.8802 270.933C87.9989 262.5 92.6791 254.725 96.8574 247.483L100 241.602C75.8712 230.178 49.1177 222.155 26.993 222.001C20.5853 221.966 14.5017 222.609 9.02294 224.053C8.63555 225.634 13.2684 227.188 14.3831 227.634Z" fill="white"/>
<path d="M159.367 285L158.389 287.678C155.604 295.336 153.77 303.037 153.206 310.667C152.937 313.996 152.926 317.333 153.206 320.634C153.785 328.129 155.723 335.572 159.379 342.912C166.273 350.363 172.922 358.081 179.314 366C182.157 337.06 176.294 308.243 159.367 285Z" fill="white"/>
<path d="M103.123 392.892C118.92 397.859 135.76 399.132 152.603 397.023C157.401 396.398 162.23 395.534 167 394.397C162.419 387.34 157.61 380.503 152.603 373.826C144.448 362.903 135.835 352.367 126.863 342.14C120.033 339.126 111.878 337.957 103.123 338.001C83.7148 338.121 61.5886 344.314 46 349.445C50.4781 355.974 54.9957 361.586 59.3989 366.065C72.1309 378.99 87.0922 387.836 103.123 392.892Z" fill="white"/>
<path d="M104 316.247L102.879 315.157C93.379 305.763 83.8202 298.261 73.7006 288.614C61.4727 281.868 42.4182 283.608 26.6565 286.957C22.8859 287.744 19.285 288.662 16 289.516C19.0481 298.45 22.6569 307.357 26.6565 315.854C30.6917 324.399 35.098 332.589 39.6899 340C57.1098 325.922 80.2193 317.546 102.879 316.303L104 316.247Z" fill="white"/>
<path d="M26.954 269.821C32.7897 267.148 39.0177 265.05 45 263.931C38.9226 257.922 33.1344 253.47 26.954 249.093C21.447 245.187 15.643 241.3 9.07826 236.406L7.19244 235C6.31688 247.783 8.47606 262.716 12.7112 278C16.7879 275.065 21.7204 272.238 26.954 269.821Z" fill="white"/>
<path d="M491.565 517.258C483.759 494.306 465.802 453.92 446.044 412C403.529 429.26 356.393 425.94 329.115 414.555C300.594 465.424 284.717 525.009 291.597 600.392C395.589 606.775 475.202 639.682 514.638 659C517.673 597.727 500.878 544.504 491.565 517.258Z" fill="white"/>
<path d="M69.2386 412C49.5383 453.921 31.6067 494.227 23.7804 517.176C14.5337 544.448 -2.53534 597.732 0.317412 659C79.9651 621.108 155.446 604.515 223.418 600.513C230.259 524.703 214.393 465.09 185.889 414.177C158.766 425.681 111.753 429.095 69.2386 412Z" fill="white"/>
<path d="M177.832 182C168.776 205.08 159.337 227.551 151 245.94C153.677 248.274 156.278 250.718 158.797 253.234C204.471 298.995 207.562 356.242 197.59 397.355C213.523 419.909 227.201 443.698 238.357 468C238.357 468 242.1 416.706 244.701 333.304L246 245.216C220.388 231.609 193.35 213.699 177.832 182Z" fill="white"/>
<path d="M355.687 253.252C358.362 250.57 361.14 248.023 364 245.559C355.671 227.206 346.368 204.917 337.38 182C322.442 213.552 298.753 229.777 269 245.638L270.18 333.312C272.756 416.711 276.504 468 276.504 468C287.587 443.797 301.14 420.164 316.993 397.741C306.952 356.621 309.911 299.146 355.687 253.252Z" fill="white"/>
<path d="M280.897 141.057C275.807 145.718 271.765 150.423 270 154.394C270.867 177.255 271.651 200.147 272.356 223C275.311 220.888 278.167 218.654 280.897 216.282C305.631 195.261 322 166.396 322 132.48C322 127.748 321.571 122.565 320.822 117L317.422 117.951C308.865 120.312 292.244 130.668 280.897 141.057Z" fill="white"/>
<path d="M243.173 225L245 176.939C242.679 171.721 236.471 165.212 229.061 159.148C218.227 150.286 204.815 142.282 197.409 140.216L193 139C194.7 168.65 208.12 194.258 229.061 213.658C233.454 217.752 238.152 221.519 243.173 225Z" fill="white"/>
<path d="M294 40.0187C289.749 32.2268 285.158 24.9506 280.227 18.5289C274.525 11.0441 268.39 4.66569 262 -9.77485e-07V1.50011H262.235L265.234 54C269.727 50.0115 274.784 46.6412 280.227 44.141C284.63 42.1527 289.225 40.7234 294 40.0187Z" fill="white"/>
<path d="M229.088 80.5525C224.798 76.9582 220.496 74.1185 217.205 72.9866L206.841 70C198.711 91.3633 193.608 113.104 193 129.574C205.136 129.943 217.726 133.685 229.088 139.34C235.225 142.394 240.979 146.032 246.086 150L248 103.616C245.494 96.9473 237.202 87.348 229.088 80.5525Z" fill="white"/>
<path d="M228.787 26.6127C221.663 37.1772 215.326 49.3042 210 61.9324C217.203 62.8565 223.194 63.7532 228.787 65.4761C235.51 67.5788 241.647 70.8797 248.684 77L251.811 2.04942H252V1C243.724 7.14767 235.895 16.0677 228.787 26.6127Z" fill="white"/>
<path d="M315.293 107.436L319 107.018C315.411 89.022 308.539 68.599 299.522 50L297.643 50.6303C293.102 52.2023 286.675 56.9534 280.818 62.6147C274.567 68.6778 268.966 75.777 267 81.0009L268.871 127C272.617 124.081 276.639 121.433 280.818 119.018C291.561 112.951 303.429 108.752 315.293 107.436Z" fill="white"/>
<path d="M410.864 392.892C426.91 387.836 441.884 378.99 454.585 366.065C458.992 361.586 463.541 355.974 468 349.445C452.439 344.314 430.296 338.121 410.864 338.001C402.156 337.957 393.976 339.126 387.147 342.14C378.166 352.367 369.557 362.903 361.398 373.826C356.391 380.503 351.589 387.34 347 394.397C351.766 395.534 356.608 396.398 361.398 397.023C378.233 399.132 395.089 397.859 410.864 392.892Z" fill="white"/>
<path d="M361 310.667C360.435 303.037 358.579 295.336 355.783 287.678L354.785 285C337.745 308.243 331.816 337.056 334.697 366C341.148 358.081 347.816 350.359 354.785 342.908C358.475 335.568 360.424 328.125 361 320.634V310.667Z" fill="white"/>
<path d="M487.039 249.093C480.855 253.47 475.072 257.918 469 263.927C474.965 265.05 481.228 267.148 487.039 269.821C492.287 272.238 497.211 275.061 501.29 278C505.517 262.712 507.66 247.783 506.82 235L504.939 236.406C498.343 241.296 492.552 245.187 487.039 249.093Z" fill="white"/>
<path d="M487.359 315.849C491.353 307.355 495.01 298.452 498 289.518C494.741 288.664 491.139 287.743 487.359 286.959C471.584 283.606 452.539 281.87 440.306 288.612C430.195 298.259 420.605 305.761 411.09 315.152L410 316.251L411.09 316.31C433.793 317.546 456.883 325.925 474.345 340C478.927 332.593 483.35 324.402 487.359 315.849Z" fill="white"/>
<path d="M361 277.616L361.178 277.839L364.921 282.536C372.866 292.499 378.393 301.784 380.359 313C388.831 304.068 397.391 295.688 407.251 287.817C408.96 284.973 410.149 282.285 410.882 279.645C412.547 274.004 412.187 268.683 410.882 262.905C410.149 259.465 409.015 255.869 407.738 251.947L405.919 246C387.253 255.113 374.559 264.08 364.251 274.258C363.208 275.3 362.177 276.303 361.178 277.365L361 277.616Z" fill="white"/>
<path d="M427.116 270.933C427.199 271.675 427.29 272.393 427.373 273C445.81 259.285 466.433 244.367 487.001 233.657C491.247 231.452 495.461 229.46 499.623 227.634C500.706 227.188 505.343 225.634 504.98 224.053C499.493 222.609 493.413 221.966 487.001 222.001C464.888 222.155 438.145 230.178 414 241.602L417.143 247.483C421.313 254.725 425.994 262.5 427.116 270.933Z" fill="white"/>
</svg>
